<svg id="svg" xmlns="http://www.w3.org/2000/svg" xmlns:xlink="http://www.w3.org/1999/xlink" width="400" height="333.33333333333337" viewBox="0, 0, 400,333.33333333333337"><g id="svgg"><path id="path0" d="M90.542 3.014 C 90.324 3.232,91.154 7.218,92.386 11.872 C 93.619 16.526,99.811 39.758,106.146 63.500 L 117.665 106.667 123.512 106.667 C 129.243 106.667,129.351 106.637,128.979 105.167 C 128.769 104.342,122.519 81.017,115.089 53.333 L 101.580 3.000 96.259 2.809 C 93.333 2.703,90.760 2.796,90.542 3.014 M220.050 33.500 C 197.923 116.260,199.644 106.781,206.792 106.527 L 212.250 106.333 213.035 103.333 C 214.368 98.242,239.379 5.073,239.745 3.833 C 240.055 2.784,239.496 2.667,234.191 2.667 L 228.293 2.667 220.050 33.500 M276.394 25.457 C 266.852 27.530,258.241 36.578,255.468 47.446 C 253.319 55.872,254.301 57.244,263.477 58.633 C 265.782 58.982,269.467 59.593,271.667 59.992 C 273.867 60.390,276.867 60.868,278.333 61.052 C 279.800 61.237,281.522 61.545,282.159 61.737 C 283.648 62.184,286.627 59.030,287.141 56.462 C 288.163 51.351,288.413 51.619,302.884 73.333 C 323.488 104.250,322.357 101.484,315.019 103.020 C 308.101 104.467,308.402 103.744,308.928 117.662 C 309.337 128.481,309.614 132.151,310.337 136.333 C 310.464 137.067,310.590 137.878,310.617 138.136 C 310.868 140.514,321.806 138.686,327.782 135.268 C 338.828 128.947,343.751 119.687,342.058 108.415 C 337.319 76.869,319.530 48.200,294.545 31.841 C 287.979 27.542,285.512 26.416,279.667 25.047 C 279.300 24.961,277.827 25.146,276.394 25.457 M155.898 112.693 C 141.835 114.334,124.033 121.633,109.671 131.647 L 103.333 136.065 103.333 139.645 C 103.333 146.215,104.508 146.741,110.732 142.961 C 146.986 120.937,184.618 120.608,221.979 141.988 C 230.155 146.667,230.670 146.579,230.654 140.500 L 230.641 135.667 222.821 130.550 C 199.367 115.206,179.587 109.928,155.898 112.693 M32.000 151.285 C 23.750 154.882,13.550 159.340,9.333 161.190 L 1.667 164.554 1.486 169.777 L 1.306 175.000 17.617 182.211 C 54.229 198.397,50.639 197.552,50.656 189.986 L 50.667 185.639 38.500 180.378 C 16.348 170.799,14.815 170.024,16.333 169.166 C 17.067 168.752,24.867 165.333,33.667 161.569 L 49.667 154.724 50.228 150.670 C 51.302 142.920,51.171 142.925,32.000 151.285 M281.472 149.762 L 281.667 154.857 297.000 161.484 C 305.433 165.129,313.196 168.495,314.251 168.964 C 316.679 170.044,317.735 169.453,298.040 178.046 L 281.667 185.190 281.472 190.680 C 281.294 195.682,281.383 196.142,282.472 195.856 C 283.129 195.683,294.087 190.919,306.823 185.270 L 329.978 175.000 329.989 169.923 L 330.000 164.846 307.007 154.756 C 279.643 142.748,281.216 143.056,281.472 149.762 M75.747 154.822 C 67.524 156.998,65.190 163.268,64.015 186.341 C 62.967 206.915,61.500 210.712,53.802 212.771 L 50.667 213.610 50.667 219.446 L 50.667 225.282 53.167 225.966 C 61.805 228.330,63.103 231.472,64.006 252.200 C 65.200 279.602,67.954 284.312,83.275 285.157 L 90.000 285.527 90.000 279.483 L 90.000 273.439 85.580 272.966 C 78.037 272.158,77.706 271.292,76.792 250.000 C 76.022 232.058,75.351 229.588,69.536 223.308 L 65.853 219.329 69.223 216.165 C 75.172 210.580,76.287 206.144,77.224 184.333 C 77.939 167.676,78.842 166.000,87.099 166.000 L 90.000 166.000 90.000 160.000 L 90.000 154.000 84.167 154.069 C 80.958 154.107,77.169 154.446,75.747 154.822 M242.000 160.000 L 242.000 166.000 245.700 166.000 C 253.991 166.000,254.560 167.174,255.393 185.997 C 256.098 201.938,256.684 206.237,258.723 210.449 C 260.009 213.106,265.448 218.667,266.761 218.667 C 268.055 218.667,267.179 219.925,264.777 221.515 C 258.241 225.840,256.356 232.224,255.381 253.326 C 254.527 271.819,253.810 273.176,244.833 273.296 L 242.000 273.333 242.000 279.422 L 242.000 285.512 248.500 285.184 C 264.772 284.365,267.207 280.276,268.662 251.333 C 269.691 230.878,270.771 228.355,279.525 225.959 L 282.051 225.268 281.859 219.558 L 281.667 213.848 278.209 212.560 C 270.838 209.814,269.602 206.759,268.677 189.000 C 267.477 165.975,267.099 164.034,262.907 159.371 C 259.171 155.216,255.770 154.000,247.881 154.000 L 242.000 154.000 242.000 160.000 M153.756 159.358 C 139.546 161.587,122.731 168.822,109.000 178.615 L 103.667 182.419 103.667 187.155 C 103.667 193.431,103.602 193.416,111.338 188.997 C 148.967 167.505,182.992 166.993,220.055 187.363 C 231.054 193.409,230.667 193.422,230.667 186.999 L 230.667 182.076 223.557 177.322 C 200.770 162.085,176.382 155.808,153.756 159.358 M157.667 205.138 C 143.480 206.771,126.897 213.170,112.601 222.528 C 104.285 227.971,103.330 229.119,103.344 233.648 C 103.360 238.923,103.982 239.365,108.155 237.062 C 150.773 213.541,182.757 212.648,220.322 233.932 C 230.286 239.578,230.333 239.575,230.333 233.351 L 230.333 228.369 223.667 223.864 C 209.251 214.122,193.238 207.339,181.667 206.072 C 174.961 205.338,160.739 204.785,157.667 205.138 M152.333 252.392 C 137.556 254.993,121.892 261.955,107.833 272.170 L 103.333 275.440 103.333 279.332 C 103.333 286.505,103.241 286.481,111.758 281.563 C 149.147 259.977,184.106 259.812,221.625 281.047 C 231.107 286.414,230.667 286.461,230.667 280.076 L 230.667 274.818 222.401 269.404 C 198.937 254.034,175.429 248.327,152.333 252.392 M103.703 299.094 C 101.732 306.944,105.675 310.975,124.667 320.529 C 158.473 337.534,189.638 335.048,223.567 312.640 L 230.667 307.951 230.667 303.015 C 230.667 296.655,230.802 296.680,222.272 301.455 C 184.002 322.874,150.805 322.933,112.588 301.647 C 103.616 296.650,104.269 296.838,103.703 299.094 " stroke="none" fill="#000000" fill-rule="evenodd"></path></g></svg>