<svg id="svg" xmlns="http://www.w3.org/2000/svg" xmlns:xlink="http://www.w3.org/1999/xlink" width="400" height="345.66170026292724" viewBox="0, 0, 400,345.66170026292724"><g id="svgg"><path id="path0" d="M95.267 0.282 C 94.351 0.341,93.602 0.461,93.602 0.548 C 93.602 0.903,99.838 24.422,109.908 62.051 C 115.765 83.935,121.000 103.536,121.541 105.609 L 122.524 109.377 128.396 109.377 C 132.511 109.378,134.268 109.260,134.268 108.983 C 134.268 108.767,128.420 86.799,121.272 60.167 C 114.124 33.534,107.628 9.299,106.837 6.310 C 106.045 3.322,105.307 0.775,105.196 0.651 C 104.965 0.391,97.745 0.123,95.267 0.282 M239.735 0.248 C 238.899 0.376,238.731 0.666,238.087 3.088 C 237.693 4.571,232.780 22.957,227.170 43.947 C 210.443 106.523,209.958 108.409,210.478 108.930 C 210.627 109.080,213.149 109.255,216.083 109.320 L 221.416 109.438 222.340 106.165 C 223.201 103.114,227.079 88.695,243.971 25.737 C 247.648 12.031,250.657 0.633,250.657 0.409 C 250.657 0.012,242.091 -0.114,239.735 0.248 M308.488 13.585 C 307.216 14.724,306.769 16.350,306.757 19.869 L 306.748 22.385 299.649 22.501 C 290.343 22.653,287.872 23.774,285.291 29.017 L 284.137 31.361 284.044 75.345 C 283.941 123.879,283.827 121.195,286.149 124.671 C 286.821 125.676,288.158 126.958,289.395 127.783 L 291.499 129.185 341.981 129.185 L 392.463 129.185 394.080 128.234 C 396.143 127.022,397.759 125.176,398.913 122.715 L 399.825 120.771 399.825 76.066 L 399.825 31.361 398.671 29.017 C 396.090 23.774,393.619 22.653,384.312 22.501 L 377.213 22.385 377.213 19.691 C 377.213 14.464,375.982 12.621,372.493 12.621 C 368.739 12.621,367.748 13.972,367.748 19.089 L 367.748 22.436 341.981 22.436 L 316.214 22.436 316.214 19.089 C 316.214 14.022,315.210 12.621,311.584 12.621 C 309.875 12.621,309.398 12.769,308.488 13.585 M306.820 34.268 C 307.079 38.640,308.482 40.451,311.610 40.450 C 314.885 40.448,316.214 38.695,316.214 34.373 L 316.214 31.551 341.981 31.551 L 367.748 31.551 367.748 34.373 C 367.748 42.913,376.699 43.013,377.147 34.479 L 377.303 31.506 383.209 31.616 C 391.065 31.763,390.670 31.393,390.822 38.747 L 390.935 44.172 342.005 44.172 L 293.076 44.172 293.081 39.176 C 293.089 31.607,293.135 31.564,301.182 31.556 L 306.658 31.551 306.820 34.268 M390.803 86.271 L 390.710 118.904 389.726 119.750 L 388.743 120.596 342.113 120.596 C 309.382 120.596,295.273 120.483,294.776 120.217 C 293.058 119.297,293.076 119.677,293.076 85.550 L 293.076 53.637 341.986 53.637 L 390.896 53.637 390.803 86.271 M336.302 58.214 C 331.126 60.252,329.010 63.959,329.010 70.990 C 329.010 77.813,330.655 80.985,335.495 83.494 C 337.822 84.701,345.614 84.889,348.501 83.808 C 358.654 80.010,359.076 63.743,349.157 58.513 C 346.880 57.313,339.054 57.130,336.302 58.214 M368.461 58.249 C 360.703 61.295,358.313 74.315,364.313 80.849 C 369.018 85.973,380.505 86.022,385.098 80.939 C 390.982 74.426,389.082 62.293,381.591 58.547 C 379.056 57.279,371.375 57.104,368.461 58.249 M346.086 67.664 C 347.129 68.952,346.978 73.387,345.853 74.512 C 344.971 75.394,341.896 75.716,339.776 75.148 C 337.067 74.422,337.379 67.441,340.147 66.834 C 342.098 66.407,345.447 66.875,346.086 67.664 M378.282 67.500 C 379.453 68.560,379.282 73.671,378.042 74.646 C 376.476 75.878,371.750 75.573,370.820 74.181 C 370.251 73.328,370.522 68.146,371.166 67.575 C 372.456 66.431,377.047 66.383,378.282 67.500 M305.346 90.226 C 298.888 92.110,295.920 96.843,296.315 104.625 C 296.743 113.060,301.005 116.915,309.904 116.915 C 316.679 116.915,319.652 115.414,322.206 110.705 L 323.401 108.501 323.401 103.593 C 323.401 97.577,322.860 96.035,319.741 93.160 C 316.500 90.173,310.041 88.857,305.346 90.226 M337.510 90.267 C 331.545 91.908,329.009 95.832,329.011 103.418 C 329.013 113.126,332.753 116.915,342.331 116.915 C 351.725 116.915,356.189 112.567,356.175 103.432 C 356.159 93.284,347.848 87.422,337.510 90.267 M370.202 90.244 C 363.709 92.099,361.262 95.753,361.262 103.593 L 361.262 108.501 362.457 110.705 C 365.010 115.414,367.984 116.915,374.759 116.915 C 385.049 116.915,390.299 110.071,388.107 99.513 C 386.571 92.116,378.419 87.896,370.202 90.244 M313.409 99.912 C 314.448 100.952,314.445 106.162,313.404 107.104 C 312.015 108.361,307.720 108.245,306.389 106.915 C 305.333 105.859,305.381 101.170,306.459 100.023 C 307.526 98.887,312.308 98.811,313.409 99.912 M345.902 99.973 C 347.459 101.436,347.038 106.557,345.286 107.463 C 340.881 109.741,336.859 106.406,338.091 101.497 C 338.688 99.120,343.910 98.102,345.902 99.973 M378.154 99.973 C 379.284 101.035,379.366 105.822,378.274 106.915 C 376.943 108.245,372.648 108.361,371.259 107.104 C 370.218 106.162,370.214 100.952,371.253 99.912 C 372.318 98.848,377.000 98.889,378.154 99.973 M165.118 115.570 C 149.488 116.656,128.947 125.041,112.014 137.248 L 107.637 140.403 107.631 144.324 C 107.622 150.397,108.307 151.135,112.007 149.038 C 112.971 148.491,115.495 147.046,117.616 145.827 C 156.204 123.644,193.924 124.086,233.655 147.188 C 240.982 151.448,241.192 151.376,241.192 144.606 L 241.192 140.277 235.846 136.625 C 219.008 125.124,203.078 118.073,190.184 116.412 C 183.348 115.532,171.426 115.131,165.118 115.570 M43.169 151.841 C 39.436 153.402,28.236 158.262,18.279 162.642 L 0.175 170.606 0.175 175.810 L 0.175 181.014 18.405 189.124 C 42.411 199.803,50.857 203.422,51.132 203.148 C 51.257 203.024,51.412 200.601,51.477 197.763 L 51.595 192.603 50.600 192.144 C 50.053 191.892,43.848 189.192,36.810 186.145 C 23.566 180.410,16.332 177.198,14.593 176.278 L 13.586 175.746 20.378 172.751 C 24.113 171.103,32.454 167.514,38.913 164.775 C 45.372 162.037,50.762 159.692,50.890 159.565 C 51.507 158.952,51.625 150.185,51.024 149.584 C 50.243 148.803,50.862 148.625,43.169 151.841 M295.150 149.360 C 294.769 149.596,294.627 150.827,294.539 154.676 L 294.424 159.684 307.423 165.217 C 314.572 168.259,322.957 171.888,326.057 173.280 L 331.692 175.811 327.525 177.796 C 324.019 179.466,297.969 190.897,295.664 191.776 C 294.323 192.288,294.073 202.980,295.402 202.980 C 295.988 202.980,309.575 197.061,328.834 188.415 C 336.450 184.996,343.352 181.898,344.172 181.530 L 345.662 180.861 345.662 175.845 L 345.662 170.830 326.468 162.379 C 309.852 155.064,298.989 150.356,296.377 149.338 C 295.976 149.182,295.424 149.192,295.150 149.360 M80.695 159.687 C 75.522 160.624,71.708 163.639,69.262 168.726 C 67.294 172.817,66.938 175.870,65.885 197.721 C 65.039 215.255,63.506 218.586,55.077 221.214 L 52.060 222.155 52.060 228.042 L 52.060 233.929 54.745 234.704 C 63.649 237.274,65.363 241.103,65.924 259.684 C 66.680 284.694,67.766 288.880,74.784 293.809 C 78.314 296.288,79.705 296.632,87.029 296.842 L 93.252 297.019 93.252 290.841 L 93.252 284.663 91.524 284.663 C 81.078 284.663,80.124 283.223,79.557 266.608 C 78.695 241.367,77.918 238.250,70.772 231.355 L 67.298 228.003 70.752 224.808 C 77.734 218.349,78.890 213.898,79.563 190.885 C 80.076 173.308,81.181 171.429,90.990 171.429 L 93.252 171.429 93.252 165.294 L 93.252 159.159 88.256 159.190 C 85.508 159.208,82.106 159.431,80.695 159.687 M253.462 165.209 L 253.462 171.339 257.230 171.509 C 266.493 171.928,266.666 172.319,267.495 194.741 C 268.257 215.357,269.769 220.268,276.941 225.416 C 281.005 228.334,280.866 227.871,278.198 229.610 C 270.194 234.824,268.324 240.434,267.498 261.700 C 266.644 283.694,266.416 284.203,257.230 284.593 L 253.462 284.753 253.462 290.843 L 253.462 296.933 258.633 296.926 C 266.981 296.917,270.838 295.712,274.533 291.958 C 279.131 287.288,279.997 283.306,280.803 263.103 C 281.703 240.550,282.907 237.535,292.138 234.718 L 294.654 233.950 294.749 228.006 L 294.845 222.061 292.471 221.435 C 288.272 220.326,285.002 217.944,283.411 214.835 C 281.872 211.827,281.496 208.256,280.444 186.678 C 279.717 171.753,278.735 168.253,274.022 163.796 C 270.302 160.278,267.784 159.480,259.684 159.254 L 253.462 159.080 253.462 165.209 M166.696 164.294 C 166.117 164.362,164.145 164.587,162.314 164.796 C 146.665 166.576,128.291 174.394,111.919 186.239 L 107.625 189.346 107.625 193.511 C 107.625 200.533,107.467 200.472,114.636 196.248 C 132.976 185.441,150.623 179.686,168.202 178.778 C 192.154 177.540,208.620 181.801,232.568 195.437 C 241.738 200.658,241.192 200.780,241.168 193.514 L 241.154 189.132 238.982 187.572 C 222.789 175.940,207.897 168.794,193.982 165.976 C 186.222 164.405,172.828 163.579,166.696 164.294 M163.694 213.135 C 146.687 215.285,126.614 223.878,110.857 235.752 C 107.948 237.944,107.625 238.642,107.625 242.729 C 107.625 248.874,108.013 248.989,114.965 244.907 C 155.181 221.294,192.852 221.108,232.763 244.326 C 241.078 249.163,241.192 249.135,241.192 242.259 L 241.192 237.851 233.742 232.909 C 217.744 222.294,202.956 215.692,191.907 214.231 C 184.901 213.304,167.655 212.635,163.694 213.135 M165.584 261.908 C 148.389 263.442,129.651 271.004,112.705 283.250 L 107.625 286.920 107.625 290.831 C 107.625 298.120,107.586 298.100,114.286 294.103 C 135.468 281.465,152.710 276.426,174.759 276.431 C 197.025 276.436,210.843 280.395,232.687 293.030 C 241.521 298.139,241.192 298.155,241.192 292.605 C 241.192 286.080,241.683 286.688,230.500 279.361 C 209.758 265.770,187.968 259.912,165.584 261.908 M107.931 311.218 C 107.674 311.874,107.649 313.580,107.852 316.555 L 108.151 320.927 112.007 323.676 C 126.889 334.285,144.078 341.895,158.482 344.251 C 186.421 348.821,209.247 342.747,237.423 323.246 L 241.192 320.638 241.192 316.039 C 241.192 308.996,241.702 309.034,230.850 315.270 C 193.423 336.779,154.861 336.680,117.441 314.980 C 113.493 312.691,108.884 310.254,108.501 310.254 C 108.395 310.254,108.139 310.688,107.931 311.218 " stroke="none" fill="#000000" fill-rule="evenodd"></path></g></svg>