<?xml version="1.0" standalone="no"?>
<!DOCTYPE svg PUBLIC "-//W3C//DTD SVG 20010904//EN"
 "http://www.w3.org/TR/2001/REC-SVG-20010904/DTD/svg10.dtd">
<svg version="1.0" xmlns="http://www.w3.org/2000/svg"
 width="478.000000pt" height="463.000000pt" viewBox="0 0 478.000000 463.000000"
 preserveAspectRatio="xMidYMid meet">
<metadata>
Created by potrace 1.15, written by Peter Selinger 2001-2017
</metadata>
<g transform="translate(0.000000,463.000000) scale(0.100000,-0.100000)"
fill="#000000" stroke="none">
<path d="M1300 4583 c0 -4 88 -329 197 -720 l197 -713 78 0 c43 0 78 1 78 3 0
1 -90 324 -199 717 l-198 715 -77 3 c-42 2 -76 -1 -76 -5z"/>
<path d="M3280 4585 c0 -3 -88 -321 -195 -707 -107 -386 -195 -708 -195 -715
0 -10 20 -13 75 -13 l74 0 15 53 c9 28 89 320 180 647 90 327 174 628 185 668
l20 72 -80 0 c-43 0 -79 -2 -79 -5z"/>
<path d="M2205 3056 c-218 -37 -456 -136 -640 -268 l-75 -53 0 -62 c0 -76 7
-78 91 -27 83 50 250 127 344 157 447 146 854 97 1287 -154 93 -54 98 -53 98
24 l0 63 -107 71 c-181 119 -348 194 -523 234 -112 26 -362 34 -475 15z"/>
<path d="M353 2477 l-333 -142 0 -65 0 -65 343 -148 c188 -81 345 -147 350
-147 4 0 7 31 7 69 l0 68 -260 109 c-143 59 -260 111 -260 114 0 3 116 53 258
111 l257 106 3 66 c3 59 1 67 -15 67 -10 -1 -168 -65 -350 -143z"/>
<path d="M4040 2553 l0 -68 255 -105 c140 -58 255 -108 255 -111 0 -3 -114
-53 -252 -111 l-253 -106 -3 -71 c-2 -39 1 -71 5 -70 4 0 161 66 348 147 l340
148 0 63 0 64 -335 143 c-184 79 -341 144 -347 144 -9 0 -13 -20 -13 -67z"/>
<path d="M1088 2474 c-63 -19 -120 -84 -141 -161 -10 -38 -18 -124 -22 -253
-4 -107 -11 -219 -17 -248 -14 -73 -61 -126 -128 -143 l-50 -13 0 -76 0 -76
50 -13 c101 -26 140 -104 140 -284 1 -170 17 -350 35 -395 22 -55 92 -116 150
-131 24 -6 76 -11 114 -11 l71 0 0 79 0 79 -64 4 c-44 3 -71 10 -85 22 -30 27
-41 100 -41 264 0 81 -5 176 -10 212 -14 89 -55 166 -110 208 -25 19 -45 38
-45 42 0 4 20 23 45 42 91 69 119 166 121 418 1 203 11 248 59 272 19 10 56
18 83 18 l47 0 0 80 0 80 -77 -1 c-43 0 -99 -7 -125 -15z"/>
<path d="M3480 2410 l0 -80 49 0 c64 0 96 -13 118 -46 14 -23 18 -62 24 -248
8 -242 18 -293 68 -361 16 -22 47 -51 70 -65 22 -14 41 -27 41 -30 0 -3 -18
-15 -40 -28 -21 -12 -52 -41 -68 -65 -53 -76 -63 -131 -71 -368 -6 -182 -10
-220 -24 -243 -22 -33 -54 -46 -118 -46 l-49 0 0 -80 0 -80 78 0 c94 0 158 20
201 62 69 67 80 115 90 390 9 246 18 287 73 333 17 14 50 31 74 37 l44 12 0
76 0 76 -44 12 c-24 6 -57 23 -74 37 -54 45 -64 88 -73 320 -12 294 -19 328
-87 398 -45 46 -109 67 -209 67 l-73 0 0 -80z"/>
<path d="M2285 2419 c-115 -10 -207 -30 -320 -69 -115 -41 -298 -135 -397
-206 l-78 -55 0 -64 c0 -41 4 -65 11 -65 6 0 37 16 69 35 154 93 363 177 547
217 134 30 402 32 548 4 187 -35 343 -95 546 -212 42 -24 81 -44 87 -44 8 0
12 23 12 65 l0 64 -77 55 c-103 73 -307 178 -418 215 -163 54 -350 75 -530 60z"/>
<path d="M2245 1774 c-228 -35 -443 -119 -640 -250 -121 -80 -115 -73 -115
-143 0 -73 6 -75 81 -30 236 139 501 225 754 244 89 7 268 -8 378 -30 161 -34
329 -102 509 -206 93 -54 98 -53 98 24 l0 63 -107 71 c-184 121 -361 200 -533
238 -73 16 -361 29 -425 19z"/>
<path d="M2265 1129 c-237 -24 -499 -129 -722 -292 l-53 -38 0 -64 c0 -41 4
-65 11 -65 6 0 37 16 69 35 152 93 369 179 543 217 146 32 436 32 584 0 174
-38 336 -103 525 -213 36 -22 72 -39 78 -39 7 0 10 22 8 67 l-3 68 -98 66
c-110 74 -264 153 -375 193 -161 57 -387 83 -567 65z"/>
<path d="M1492 423 l3 -67 85 -58 c106 -73 296 -168 415 -207 243 -81 563 -83
805 -4 111 36 281 121 403 201 l107 72 0 65 c0 45 -4 65 -12 65 -7 0 -49 -21
-93 -46 -238 -137 -413 -197 -655 -225 -304 -35 -657 48 -961 227 -42 24 -81
44 -88 44 -8 0 -11 -20 -9 -67z"/>
</g>
</svg>
