<svg id="svg" xmlns="http://www.w3.org/2000/svg" xmlns:xlink="http://www.w3.org/1999/xlink" width="400" height="337.0940170940171" viewBox="0, 0, 400,337.0940170940171"><g id="svgg"><path id="path0" d="M92.906 0.275 C 92.013 0.332,91.282 0.449,91.282 0.535 C 91.282 0.881,97.363 23.817,107.184 60.513 C 112.896 81.855,118.001 100.970,118.528 102.991 L 119.487 106.666 125.214 106.666 C 129.227 106.667,130.940 106.552,130.940 106.282 C 130.940 106.071,125.237 84.648,118.266 58.675 C 111.296 32.703,104.961 9.068,104.189 6.154 C 103.416 3.239,102.697 0.756,102.589 0.635 C 102.364 0.382,95.322 0.120,92.906 0.275 M233.793 0.242 C 232.978 0.367,232.814 0.650,232.186 3.011 C 231.802 4.458,227.011 22.388,221.539 42.857 C 205.227 103.882,204.754 105.722,205.261 106.230 C 205.406 106.376,207.866 106.547,210.727 106.611 L 215.928 106.725 216.829 103.534 C 217.668 100.558,221.450 86.497,237.924 25.099 C 241.510 11.733,244.444 0.618,244.444 0.398 C 244.444 0.012,236.090 -0.111,233.793 0.242 M325.470 11.230 C 325.470 11.353,325.047 11.483,324.530 11.518 C 323.320 11.599,320.855 11.900,320.855 11.967 C 320.855 12.027,320.191 12.196,318.898 12.466 C 318.386 12.572,317.573 12.809,317.091 12.993 C 316.610 13.176,316.106 13.302,315.971 13.274 C 315.837 13.246,315.293 13.402,314.764 13.620 C 314.235 13.838,313.513 14.017,313.160 14.017 C 312.808 14.017,312.431 14.159,312.324 14.333 C 312.217 14.506,311.636 14.757,311.033 14.889 C 310.430 15.021,309.701 15.253,309.413 15.403 C 306.754 16.791,299.945 19.960,299.744 19.902 C 299.603 19.862,299.487 19.958,299.487 20.115 C 299.487 20.273,298.268 21.203,296.779 22.184 C 295.289 23.164,293.563 24.409,292.944 24.949 C 292.325 25.490,291.698 25.858,291.550 25.766 C 291.403 25.675,291.282 25.804,291.282 26.051 C 291.282 26.520,289.935 27.550,289.487 27.423 C 289.346 27.383,289.231 27.577,289.231 27.854 C 289.231 28.132,288.808 28.579,288.291 28.848 C 287.207 29.411,285.899 30.736,285.309 31.868 C 285.085 32.298,284.722 32.611,284.502 32.564 C 284.282 32.517,284.103 32.714,284.103 33.002 C 284.103 33.290,283.872 33.614,283.590 33.723 C 283.308 33.831,283.077 34.143,283.077 34.416 C 283.077 34.689,282.923 34.817,282.735 34.701 C 282.547 34.585,282.393 34.695,282.393 34.946 C 282.393 35.198,281.932 35.908,281.368 36.526 C 280.803 37.144,280.342 37.727,280.342 37.823 C 280.342 37.919,279.669 38.948,278.847 40.110 C 274.775 45.863,270.241 56.148,269.219 61.945 C 269.115 62.536,268.942 63.162,268.834 63.337 C 268.726 63.512,268.584 64.141,268.518 64.734 C 268.453 65.327,268.312 66.197,268.204 66.667 C 267.323 70.533,267.323 83.175,268.204 87.692 C 268.315 88.256,268.465 89.103,268.538 89.573 C 268.611 90.043,268.754 90.735,268.856 91.111 C 268.957 91.487,269.204 92.487,269.404 93.333 C 269.939 95.601,271.436 100.172,272.001 101.265 C 272.271 101.787,272.474 102.255,272.451 102.304 C 272.428 102.353,272.810 103.268,273.299 104.337 C 273.788 105.406,274.188 106.522,274.188 106.816 C 274.188 107.110,274.316 107.350,274.472 107.350 C 274.628 107.350,274.973 107.774,275.238 108.291 C 275.938 109.657,277.827 112.702,279.344 114.911 C 280.069 115.967,280.590 116.928,280.502 117.048 C 280.414 117.167,280.436 117.197,280.551 117.113 C 280.816 116.920,282.393 118.775,282.393 119.280 C 282.393 119.488,282.547 119.658,282.735 119.658 C 282.923 119.658,283.077 119.898,283.077 120.191 C 283.077 120.484,283.232 120.628,283.421 120.511 C 283.611 120.394,283.860 120.544,283.975 120.844 C 284.182 121.383,287.605 124.799,289.569 126.426 C 290.127 126.889,290.499 127.405,290.395 127.574 C 290.291 127.742,290.332 127.839,290.487 127.788 C 290.841 127.673,294.053 130.106,293.835 130.324 C 293.747 130.412,293.868 130.486,294.103 130.488 C 294.338 130.490,295.558 131.212,296.814 132.093 C 301.991 135.724,311.742 140.226,316.239 141.062 C 316.709 141.150,317.556 141.364,318.120 141.538 C 319.088 141.838,319.742 141.984,321.966 142.397 C 322.483 142.493,323.291 142.663,323.761 142.775 C 326.845 143.511,342.898 143.602,342.904 142.883 C 342.905 142.776,343.329 142.672,343.846 142.653 C 346.119 142.566,355.282 140.108,358.120 138.823 C 368.085 134.312,374.851 129.838,380.720 123.882 C 381.897 122.687,383.034 121.709,383.245 121.709 C 383.457 121.709,383.534 121.554,383.417 121.365 C 383.300 121.176,383.445 120.929,383.739 120.816 C 384.033 120.703,384.274 120.396,384.274 120.134 C 384.274 119.872,384.513 119.658,384.807 119.658 C 385.100 119.658,385.265 119.537,385.174 119.390 C 385.083 119.242,385.435 118.633,385.957 118.035 C 386.479 117.437,387.718 115.711,388.710 114.200 C 389.702 112.689,390.648 111.453,390.812 111.453 C 390.977 111.453,391.082 111.338,391.046 111.197 C 391.011 111.056,391.947 108.940,393.127 106.496 C 394.306 104.051,395.394 101.744,395.543 101.368 C 395.693 100.991,396.103 99.995,396.455 99.152 C 396.806 98.310,397.057 97.508,397.013 97.369 C 396.968 97.231,397.105 96.689,397.317 96.166 C 397.530 95.642,397.736 94.983,397.775 94.701 C 397.814 94.419,398.092 93.378,398.393 92.388 C 398.694 91.398,398.948 90.514,398.957 90.422 C 398.967 90.331,398.986 90.218,398.999 90.171 C 399.062 89.959,399.366 87.257,399.423 86.410 C 399.457 85.893,399.582 85.470,399.699 85.470 C 399.817 85.470,399.924 81.778,399.937 77.265 C 399.950 72.752,399.854 69.060,399.724 69.060 C 399.594 69.060,399.461 68.560,399.428 67.949 C 399.269 64.942,397.982 59.793,396.072 54.515 C 395.428 52.737,395.010 51.280,395.143 51.277 C 395.276 51.274,395.218 51.159,395.014 51.020 C 394.811 50.882,394.212 49.846,393.685 48.718 C 392.613 46.427,389.064 40.427,387.769 38.718 C 387.306 38.107,386.999 37.607,387.088 37.607 C 387.176 37.607,386.579 36.899,385.762 36.034 C 384.945 35.169,384.361 34.322,384.466 34.153 C 384.570 33.984,384.454 33.839,384.208 33.830 C 383.962 33.821,383.097 32.984,382.287 31.971 C 381.476 30.957,379.983 29.464,378.969 28.654 C 377.956 27.843,377.119 26.978,377.110 26.732 C 377.101 26.486,376.956 26.370,376.787 26.474 C 376.618 26.579,375.772 25.996,374.906 25.178 C 374.041 24.361,373.333 23.765,373.333 23.853 C 373.333 23.941,372.833 23.634,372.222 23.171 C 370.513 21.876,364.514 18.327,362.222 17.256 C 361.094 16.728,360.058 16.130,359.920 15.926 C 359.782 15.722,359.666 15.667,359.663 15.803 C 359.660 15.940,358.389 15.570,356.838 14.983 C 354.449 14.078,352.621 13.534,347.179 12.110 C 346.276 11.873,345.417 11.697,343.761 11.408 C 341.978 11.098,325.470 10.937,325.470 11.230 M335.920 34.565 C 336.096 34.649,336.816 34.707,337.521 34.693 C 338.226 34.679,338.803 34.777,338.803 34.910 C 338.803 35.044,339.068 35.114,339.392 35.067 C 342.777 34.570,356.111 42.953,354.601 44.628 C 354.468 44.775,354.536 44.794,354.753 44.670 C 355.663 44.150,359.982 52.438,360.113 54.956 C 360.145 55.566,360.255 56.066,360.357 56.067 C 360.796 56.070,360.954 63.511,360.574 66.233 C 360.052 69.965,357.906 74.962,355.542 77.949 C 353.755 80.207,351.040 82.926,350.684 82.815 C 350.543 82.771,350.466 82.927,350.513 83.162 C 350.560 83.397,350.395 83.547,350.146 83.496 C 349.897 83.444,349.774 83.533,349.873 83.693 C 349.972 83.853,349.060 84.968,347.847 86.170 C 346.634 87.373,345.641 88.462,345.641 88.590 C 345.641 88.817,348.284 90.128,351.453 91.473 C 359.283 94.797,370.598 102.097,370.598 103.825 C 370.598 104.072,370.795 104.274,371.036 104.274 C 371.850 104.274,378.803 113.231,378.803 114.279 C 378.803 115.825,365.388 127.250,364.336 126.599 C 364.149 126.484,364.094 126.548,364.213 126.740 C 364.737 127.587,352.133 133.130,348.205 133.781 C 347.641 133.874,346.949 134.035,346.667 134.138 C 345.474 134.575,341.186 135.124,338.889 135.134 C 337.902 135.138,337.094 135.235,337.094 135.349 C 337.094 135.463,335.633 135.556,333.847 135.556 C 332.061 135.556,330.599 135.463,330.599 135.351 C 330.598 135.238,329.560 135.146,328.291 135.146 C 326.058 135.146,323.981 134.892,322.564 134.446 C 322.188 134.327,321.573 134.200,321.197 134.163 C 318.583 133.907,313.192 132.076,308.376 129.808 C 303.576 127.549,294.405 121.181,294.372 120.085 C 294.365 119.850,294.174 119.658,293.948 119.658 C 293.387 119.658,291.282 117.580,291.282 117.027 C 291.282 116.782,291.088 116.581,290.851 116.581 C 288.204 116.581,291.647 110.725,298.105 104.246 C 303.859 98.473,305.302 97.476,314.188 93.134 C 323.804 88.435,322.892 89.165,321.197 87.521 C 320.538 86.883,320.000 86.161,320.000 85.916 C 320.000 85.671,319.826 85.470,319.614 85.470 C 318.988 85.470,313.217 79.663,311.629 77.436 C 309.343 74.229,307.279 69.393,307.032 66.667 C 307.006 66.385,306.906 65.308,306.808 64.274 C 306.710 63.239,306.633 61.932,306.638 61.368 C 306.660 58.493,306.810 56.752,307.037 56.752 C 307.176 56.752,307.251 56.489,307.204 56.167 C 306.736 52.977,314.284 40.200,316.008 41.265 C 316.193 41.379,316.251 41.321,316.136 41.135 C 315.254 39.707,327.042 34.423,330.566 34.667 C 331.170 34.709,331.717 34.656,331.782 34.551 C 331.920 34.327,335.449 34.339,335.920 34.565 M161.026 112.705 C 145.783 113.764,125.751 121.941,109.237 133.846 L 104.969 136.923 104.963 140.747 C 104.954 146.669,105.622 147.389,109.231 145.343 C 110.171 144.811,112.632 143.402,114.701 142.213 C 152.332 120.579,189.117 121.011,227.863 143.539 C 235.009 147.694,235.214 147.624,235.214 141.021 L 235.214 136.800 230.000 133.239 C 213.580 122.023,198.045 115.146,185.470 113.527 C 178.804 112.669,167.177 112.278,161.026 112.705 M42.099 148.078 C 38.459 149.600,27.536 154.340,17.826 158.611 L 0.171 166.378 0.171 171.452 L 0.171 176.527 17.949 184.436 C 41.360 194.850,49.597 198.380,49.865 198.113 C 49.986 197.992,50.137 195.629,50.201 192.861 L 50.316 187.829 49.346 187.382 C 48.813 187.136,42.761 184.503,35.897 181.531 C 22.982 175.938,15.927 172.806,14.232 171.909 L 13.250 171.390 19.873 168.469 C 23.515 166.862,31.650 163.362,37.949 160.691 C 44.248 158.020,49.504 155.734,49.629 155.610 C 50.231 155.012,50.346 146.463,49.759 145.877 C 48.998 145.115,49.601 144.942,42.099 148.078 M287.835 145.658 C 287.463 145.888,287.324 147.088,287.238 150.842 L 287.126 155.726 299.803 161.122 C 306.775 164.089,314.952 167.627,317.975 168.985 L 323.470 171.453 319.407 173.389 C 315.988 175.018,290.584 186.165,288.336 187.023 C 287.028 187.522,286.784 197.949,288.080 197.949 C 288.652 197.949,301.901 192.176,320.684 183.745 C 328.111 180.411,334.842 177.389,335.641 177.030 L 337.094 176.378 337.094 171.487 L 337.094 166.595 318.376 158.354 C 302.172 151.220,291.578 146.629,289.031 145.637 C 288.640 145.484,288.101 145.494,287.835 145.658 M78.695 155.729 C 73.650 156.643,69.931 159.583,67.545 164.544 C 65.626 168.533,65.279 171.511,64.251 192.821 C 63.427 209.920,61.932 213.168,53.712 215.731 L 50.769 216.648 50.769 222.390 L 50.769 228.131 53.388 228.887 C 62.072 231.393,63.743 235.127,64.290 253.247 C 65.027 277.638,66.087 281.720,72.931 286.526 C 76.373 288.944,77.730 289.280,84.872 289.484 L 90.940 289.657 90.940 283.632 L 90.940 277.607 89.256 277.607 C 79.069 277.607,78.138 276.203,77.585 260.000 C 76.744 235.385,75.987 232.345,69.017 225.620 L 65.630 222.352 68.998 219.236 C 75.808 212.937,76.935 208.597,77.591 186.154 C 78.092 169.013,79.168 167.179,88.735 167.179 L 90.940 167.179 90.940 161.197 L 90.940 155.214 86.068 155.245 C 83.389 155.261,80.071 155.479,78.695 155.729 M247.179 161.115 L 247.179 167.092 250.855 167.258 C 259.888 167.667,260.056 168.048,260.864 189.915 C 261.607 210.019,263.083 214.809,270.076 219.829 C 274.040 222.674,273.904 222.223,271.302 223.918 C 263.497 229.004,261.673 234.474,260.868 255.214 C 260.035 276.663,259.813 277.159,250.855 277.539 L 247.179 277.695 247.179 283.634 L 247.179 289.573 252.222 289.567 C 260.364 289.557,264.125 288.382,267.729 284.722 C 272.213 280.168,273.057 276.284,273.843 256.581 C 274.721 234.587,275.895 231.648,284.897 228.900 L 287.350 228.151 287.444 222.354 L 287.537 216.557 285.221 215.946 C 281.127 214.865,277.938 212.542,276.386 209.510 C 274.885 206.576,274.518 203.094,273.493 182.051 C 272.784 167.496,271.826 164.083,267.230 159.736 C 263.602 156.305,261.147 155.527,253.248 155.307 L 247.179 155.137 247.179 161.115 M162.564 160.222 C 162.000 160.288,160.077 160.508,158.291 160.711 C 143.029 162.447,125.111 170.072,109.145 181.623 L 104.957 184.653 104.957 188.714 C 104.957 195.563,104.804 195.503,111.795 191.383 C 129.680 180.845,146.890 175.232,164.033 174.346 C 187.392 173.139,203.449 177.295,226.803 190.592 C 235.746 195.684,235.213 195.804,235.191 188.718 L 235.177 184.444 233.058 182.923 C 217.267 171.579,202.744 164.610,189.174 161.862 C 181.607 160.330,168.544 159.525,162.564 160.222 M159.637 207.853 C 143.051 209.949,123.475 218.328,108.110 229.908 C 105.272 232.046,104.957 232.727,104.957 236.713 C 104.957 242.705,105.336 242.818,112.115 238.837 C 151.335 215.809,188.072 215.627,226.993 238.270 C 235.102 242.988,235.214 242.960,235.214 236.254 L 235.214 231.956 227.949 227.136 C 212.347 216.785,197.925 210.346,187.150 208.921 C 180.318 208.017,163.500 207.364,159.637 207.853 M161.480 255.416 C 144.711 256.912,126.437 264.287,109.911 276.229 L 104.957 279.809 104.957 283.622 C 104.957 290.730,104.919 290.712,111.453 286.813 C 132.111 274.488,148.925 269.575,170.427 269.579 C 192.142 269.584,205.617 273.445,226.920 285.767 C 235.534 290.749,235.214 290.765,235.214 285.353 C 235.214 278.990,235.692 279.582,224.786 272.436 C 204.559 259.182,183.309 253.469,161.480 255.416 M105.256 303.504 C 105.006 304.144,104.981 305.807,105.179 308.708 L 105.470 312.972 109.231 315.653 C 123.743 326.000,140.507 333.421,154.553 335.718 C 181.800 340.175,204.060 334.252,231.538 315.234 L 235.214 312.690 235.214 308.205 C 235.214 301.337,235.711 301.374,225.128 307.455 C 188.628 328.431,151.022 328.335,114.530 307.173 C 110.680 304.940,106.185 302.564,105.812 302.564 C 105.709 302.564,105.458 302.987,105.256 303.504 " stroke="none" fill="#000000" fill-rule="evenodd"></path></g></svg>