<svg xmlns="http://www.w3.org/2000/svg" viewBox="0 0 200 200">
  <path
    d="M64.592 126.608c-1.981-.199-3.938-.173-5.773-.63-2.98-.743-4.957-3.591-5.128-6.959-.21-4.134-.347-8.271-.567-12.404-.052-.972-.222-1.959-.498-2.892-.659-2.234-2.199-3.556-4.532-3.953-.326-.055-.652-.109-1.028-.172v-4.789c.5-.094 1.026-.175 1.543-.293 2.025-.464 3.457-1.699 3.945-3.648.444-1.773.602-3.635.705-5.468.161-2.854.118-5.718.26-8.573.087-1.751.386-3.478 1.253-5.069 1.292-2.373 3.362-3.503 5.988-3.703 1.251-.095 2.515-.016 3.83-.016v4.555c-.828.068-1.658.116-2.484.207-2.228.245-3.181 1.027-3.409 3.21-.238 2.275-.218 4.575-.334 6.864-.114 2.257-.126 4.529-.418 6.764-.424 3.249-2.151 5.695-5.173 7.172-.161.078-.31.181-.457.283-.043.03-.059.096-.046.073 1 .721 2.064 1.356 2.966 2.166 2.045 1.839 2.735 4.328 2.9 6.92.231 3.623.269 7.258.39 10.888.011.327.001.658.048.981.37 2.539 1.371 3.425 4 3.561.657.034 1.314.069 2.02.105-.001 1.55-.001 3.029-.001 4.82zM137.112 72.595v-4.458c5.591-.692 10.427.754 10.917 7.64.295 4.155.32 8.328.609 12.483.088 1.269.47 2.592 1.035 3.737.817 1.656 2.373 2.469 4.227 2.667.401.043.794.021.788.603-.016 1.425-.005 2.851-.005 4.257-.158.062-.238.116-.321.122-3.639.29-5.55 2.678-5.75 6.471-.194 3.686-.229 7.379-.398 11.066-.084 1.843-.341 3.668-1.225 5.35-1.288 2.452-3.417 3.611-6.104 3.835-1.222.102-2.461.017-3.757.017v-4.561c.978-.09 1.968-.113 2.93-.285 1.99-.356 2.784-1.14 2.957-3.142.192-2.22.191-4.456.306-6.684.119-2.315.127-4.65.452-6.938.472-3.324 2.214-5.867 5.393-7.306.107-.049.201-.126.408-.259-.293-.183-.522-.346-.769-.476-3.336-1.753-4.963-4.606-5.217-8.224-.221-3.145-.248-6.303-.375-9.454-.044-1.099-.066-2.206-.211-3.294-.244-1.832-1.225-2.738-3.077-2.94-.919-.1-1.845-.15-2.813-.227zM55.302 181.043c.94.165 1.882.319 2.82.496 4.78.9 6.551 4.5 5.894 8.706-.645 4.126-4.206 7.672-8.659 8.571-1.665.336-3.402.407-5.109.444-3.041.066-6.086.013-9.128.01h-.545c-.244-.668-.083-1.115.58-1.359.833-.306 1.18-.896 1.206-1.78.045-1.547.261-3.092.257-4.637-.017-6.762-.062-13.524-.15-20.285-.033-2.563-.276-2.74-2.877-2.896-.296-.018-.591-.048-.947-.077v-1.264c.193-.025.337-.059.482-.059 5.183-.01 10.365-.04 15.548-.007 1.075.007 2.174.143 3.218.395 4.036.971 5.886 5.291 3.927 8.995-1.198 2.265-3.168 3.514-5.544 4.264-.338.107-.679.204-1.019.306.014.059.03.118.046.177zm-8.326 1.196c0 4.811-.007 9.535.025 14.259.001.205.346.566.557.587 1.461.145 2.936.355 4.394.284 2.424-.119 4.619-.881 6.035-3.023 1.448-2.19 1.7-4.607 1.17-7.11-.541-2.552-2.156-4.125-4.729-4.687-2.431-.532-4.892-.509-7.452-.31zm.092-13.178v11.507c2.015-.151 4.027-.206 6.009-.474 2.427-.328 4.104-1.695 4.684-4.1.793-3.287-.072-6.356-4.32-7.092-2.077-.359-4.135-.263-6.373.159zM71.953 84.64c0-1.272-.025-2.369.02-3.463.01-.24.217-.542.424-.695 6.839-5.078 14.318-8.786 22.856-10.045 7.102-1.048 14.047-.29 20.776 2.237 5.048 1.896 9.649 4.582 13.975 7.747.233.171.49.485.504.744.056 1.093.024 2.191.024 3.44-.555-.3-.999-.529-1.432-.776-3.704-2.11-7.417-4.2-11.494-5.56-7.275-2.425-14.71-3.25-22.344-2.292-7.401.928-14.211 3.499-20.654 7.124-.836.468-1.658.959-2.655 1.539zM71.953 132.374c19.574 11.846 39 12.314 58.569-.068 0 1.379.019 2.547-.02 3.713-.006.177-.249.383-.429.513-5.348 3.884-11.045 7.108-17.478 8.907-5.306 1.484-10.704 1.915-16.185 1.258-9.014-1.08-16.826-4.933-24.022-10.194-.206-.151-.406-.457-.416-.698-.044-1.092-.019-2.187-.019-3.431zM130.533 126.252c-19.578-12.414-38.999-11.905-58.564-.088 0-1.299-.015-2.494.018-3.688.004-.154.239-.328.401-.447 7.544-5.548 15.778-9.497 25.277-10.316 7.661-.66 14.981.711 21.925 4.008 3.649 1.732 7.071 3.825 10.342 6.175.437.314.635.632.612 1.171-.041.976-.011 1.955-.011 3.185zM71.952 63.838c0-1.235-.03-2.308.021-3.376.013-.27.219-.612.445-.779 6.768-5.013 14.16-8.703 22.594-9.988 7.157-1.091 14.167-.368 20.96 2.177 5.048 1.891 9.658 4.56 13.971 7.743.299.221.535.695.564 1.07.078.994.026 1.998.026 3.228C110.973 51.491 91.52 52 71.952 63.838zM130.533 105.47c-19.588-12.415-39.042-11.914-58.579-.074 0-1.263-.021-2.385.019-3.505.008-.214.214-.478.405-.619 6.944-5.148 14.531-8.901 23.214-10.101 7.079-.978 13.985-.184 20.673 2.375 4.951 1.895 9.473 4.532 13.718 7.653.279.205.502.648.526.996.069 1.005.024 2.019.024 3.275zM135.527 197.531c-4.439 1.698-9.022 2.512-13.776 2.398-3.434-.082-6.671-.854-9.64-2.605-3.862-2.277-6.28-5.599-7.138-9.949-.948-4.809-.543-9.438 2.392-13.59 2.921-4.133 6.98-6.459 11.989-7.215 5.556-.838 10.901.191 16.204 1.801-.304 2.239-.606 4.465-.907 6.685-1.177.304-1.279.24-1.341-.868-.025-.446-.079-.897-.039-1.339.167-1.813-.757-2.959-2.338-3.62-3.955-1.656-8.031-2.039-12.183-.85-4.122 1.181-6.859 3.887-8.241 7.853-1.783 5.114-1.548 10.144 1.185 14.908 2.526 4.404 6.479 6.582 11.548 6.815 2.492.114 4.935-.191 7.235-1.208.291-.129.651-.515.66-.792.075-2.229.102-4.461.081-6.692-.008-.883-.743-1.077-1.464-1.143-1.256-.115-2.515-.191-3.842-.288v-1.202h11.197c.345.707.06 1.159-.631 1.44-.64.261-.978.664-.967 1.416.039 2.644.016 5.289.016 8.045zM67.3 168.249v-1.256h13.236v1.253c-.862.07-1.725.127-2.585.214-1.18.119-1.592.523-1.699 1.685-.076.829-.143 1.662-.146 2.494-.022 5.122-.036 10.245-.024 15.367.002 1.01.08 2.026.211 3.027.396 3.029 2.087 4.843 5.368 5.595 3.233.742 6.441.667 9.572-.607 2.25-.915 3.529-2.59 3.834-4.897.277-2.088.403-4.208.425-6.315.046-4.317-.016-8.636-.049-12.954-.005-.624-.064-1.25-.141-1.869-.126-1.016-.519-1.4-1.564-1.515-.892-.098-1.79-.149-2.729-.225v-1.253h11.059v1.254c-.894.071-1.759.125-2.621.213-1.176.119-1.625.52-1.668 1.694-.101 2.796-.149 5.593-.197 8.391-.061 3.512-.114 7.025-.146 10.538-.061 6.749-4.035 9.676-9.364 10.564-3.487.581-6.973.498-10.342-.698-3.811-1.352-5.684-3.861-5.763-7.871-.121-6.162-.131-12.327-.201-18.491-.01-.862-.052-1.727-.153-2.583-.126-1.069-.532-1.43-1.636-1.542-.865-.087-1.733-.139-2.677-.213zM159.412 174.496h-1.363c-.049-.847-.168-1.673-.129-2.492.053-1.11-.433-1.892-1.314-2.47-2.661-1.746-5.54-2.191-8.509-1.008-2.761 1.1-4.299 3.896-4.116 7.013.154 2.622 1.163 3.939 3.785 4.509 2.494.543 5.023.944 7.552 1.304 5.234.746 7.288 4.329 6.546 8.958-.715 4.466-4.6 8.231-9.337 9.219-3.929.819-7.775.512-11.506-1.027-.533-.22-.691-.448-.634-1.042.164-1.716.22-3.443.321-5.165.021-.351.05-.701.077-1.072h1.432c.079.961.16 1.875.227 2.79.064.88.406 1.594 1.155 2.116 2.829 1.971 7.562 2.997 11.211.569 3.198-2.127 3.656-6.282 2.605-8.827-.664-1.61-2.048-2.373-3.706-2.649-2.225-.371-4.462-.665-6.69-1.017-6.37-1.007-7.768-6.523-6.414-10.828 1.203-3.825 4.047-5.902 7.837-6.747 4.059-.906 7.928-.081 11.608 1.58-.213 2.116-.42 4.151-.638 6.286zM134.883.016c-1.081 3.878-2.114 7.6-3.156 11.319-3.171 11.31-6.353 22.618-9.504 33.934-.182.652-.416.935-1.138.892-1.102-.065-2.212-.017-3.459-.017.349-1.262.66-2.399.979-3.534 3.901-13.886 7.81-27.769 11.685-41.661.212-.76.547-.987 1.297-.947 1.045.057 2.097.014 3.296.014zM82.758 46.107H78.46C74.159 30.791 69.859 15.483 65.518.028c1.422 0 2.71-.034 3.992.035.207.011.485.454.567.742 1.264 4.433 2.503 8.872 3.745 13.311 2.926 10.452 5.851 20.905 8.776 31.358.047.167.086.338.16.633zM28.258 74.908c.423.194.708.337 1.002.459 5.268 2.183 10.534 4.372 15.813 6.531.577.236.851.496.809 1.153-.064 1.007-.017 2.021-.017 3.182-.337-.137-.596-.239-.851-.347-6.847-2.92-13.689-5.848-20.545-8.747-.585-.247-.846-.532-.793-1.177.08-.97-.255-2.154.201-2.861.431-.669 1.646-.857 2.528-1.23 6.194-2.615 12.39-5.223 18.587-7.832.243-.102.491-.194.871-.344 0 1.268.038 2.443-.032 3.611-.014.235-.403.538-.685.655-4.936 2.044-9.882 4.064-14.825 6.091-.637.262-1.271.528-2.063.856zM172.894 74.91c-2.11-.868-4.046-1.665-5.982-2.46-3.584-1.472-7.158-2.968-10.76-4.394-.693-.274-.9-.618-.859-1.31.057-.974.014-1.953.014-3.063.96.403 1.811.758 2.66 1.116 6.227 2.623 12.451 5.256 18.688 7.856.596.248.847.55.802 1.185-.07.975.249 2.157-.206 2.872-.427.672-1.636.872-2.515 1.247-6.103 2.609-12.209 5.21-18.315 7.812-.326.139-.659.262-1.11.441 0-1.275-.038-2.455.033-3.628.014-.23.413-.519.696-.638 5.264-2.203 10.537-4.384 15.807-6.572.296-.122.587-.259 1.047-.464z" />
  </svg>