<svg width="892" height="831" viewBox="0 0 892 831" fill="none" xmlns="http://www.w3.org/2000/svg">
<path fill-rule="evenodd" clip-rule="evenodd" d="M378.538 139.033C325.724 248.702 311.151 278.157 309.541 278.493C308.418 278.728 239.325 287.716 156 298.467C72.6749 309.218 3.17487 318.358 1.55387 318.779C-1.29413 319.518 2.38088 322.964 113.054 423.32C176 480.397 227.619 527.862 227.765 528.798C227.911 529.734 214.772 597.985 198.566 680.468C182.361 762.95 169.192 830.512 169.301 830.606C169.41 830.701 231.375 797.532 307 756.898C382.625 716.264 445.175 683.018 446 683.019C446.825 683.02 509.375 716.262 585 756.89C660.625 797.519 722.596 830.68 722.714 830.583C722.831 830.486 709.659 762.927 693.443 680.453C677.226 597.979 664.08 529.726 664.229 528.78C664.378 527.834 716.001 480.369 778.946 423.302C889.633 322.953 893.296 319.519 890.446 318.779C888.826 318.358 819.325 309.218 736 298.467C652.675 287.716 583.577 278.727 582.448 278.491C580.823 278.151 566.449 249.096 513.45 139.031C476.63 62.564 446.277 0 445.999 0C445.721 0 415.364 62.565 378.538 139.033Z" fill="white"/>
</svg>
